<svg width="1160" height="427" viewBox="0 0 1160 427" fill="none" xmlns="http://www.w3.org/2000/svg">
<g clip-path="url(#clip0_20_3463)">
<rect width="1160" height="427" rx="10" fill="#E1F9FC"/>
<path d="M1268.33 93.9947V348.984C1268.33 365.547 1254.86 378.985 1238.25 378.985H1168.01V208.997L1047.66 299.016L927.299 208.997V379H857.078C840.464 379 827 365.576 827 349.013V348.999V94.0093C827 69.1574 847.204 49 872.132 49C882.344 49 891.762 52.3889 899.325 58.0811L899.208 57.9931L1047.66 169.005L1196.1 57.9931C1203.55 52.3742 1212.97 49 1223.18 49C1248.11 49 1268.33 69.1427 1268.33 93.9947Z" fill="white"/>
<path d="M566 214C566 268.676 610.324 313 665 313C708.105 313 744.776 285.452 758.367 247H665V181H826.778V247H826.7C811.411 322.314 744.825 379 665 379C573.873 379 500 305.126 500 214C500 122.873 573.873 49 665 49C721.843 49 771.971 77.743 801.645 121.487L747.564 159.354C729.838 132.624 699.477 115 665 115C610.324 115 566 159.324 566 214Z" fill="#FFF3D4"/>
</g>
<defs>
<clipPath id="clip0_20_3463">
<rect width="1160" height="427" rx="10" fill="white"/>
</clipPath>
</defs>
</svg>
