<svg width="1160" height="407" viewBox="0 0 1160 407" fill="none" xmlns="http://www.w3.org/2000/svg">
<g clip-path="url(#clip0_20_3457)">
<rect width="1160" height="407" rx="10" fill="#FFF3D4"/>
<path d="M1260.33 83.9947V338.984C1260.33 355.547 1246.86 368.985 1230.25 368.985H1160.01V198.997L1039.66 289.016L919.299 198.997V369H849.078C832.464 369 819 355.576 819 339.013V338.999V84.0093C819 59.1574 839.204 39 864.132 39C874.344 39 883.762 42.3889 891.325 48.0811L891.208 47.9931L1039.66 159.005L1188.1 47.9931C1195.55 42.3742 1204.97 39 1215.18 39C1240.11 39 1260.33 59.1427 1260.33 83.9947Z" fill="white"/>
</g>
<defs>
<clipPath id="clip0_20_3457">
<rect width="1160" height="407" rx="10" fill="white"/>
</clipPath>
</defs>
</svg>
