<svg width="61" height="50" viewBox="0 0 61 50" fill="none" xmlns="http://www.w3.org/2000/svg">
<path fill-rule="evenodd" clip-rule="evenodd" d="M26.1832 49.1913C26.1222 49.1422 26.0586 49.0965 25.9925 49.0546C20.801 45.7714 16.1126 41.7801 11.5822 37.92L11.163 37.5592C8.91411 35.6401 6.84019 33.525 4.83705 31.4755C3.74835 30.3824 2.65964 29.2892 1.57094 28.1961C1.09085 27.7465 0.704501 27.2062 0.434146 26.6066C0.189156 26.0527 0.0586342 25.455 0.0504195 24.8494C0.0564962 23.8702 0.450708 22.9333 1.14659 22.2444C1.60025 21.7816 2.03214 21.297 2.48589 20.7907C3.08177 20.1319 3.69406 19.4459 4.36083 18.7981C6.47043 16.746 8.73292 14.6124 11.4653 12.0761C11.908 11.6679 12.3668 11.3252 12.8093 10.9879C13.2401 10.683 13.649 10.3485 14.0332 9.98671C15.8382 8.27217 17.7646 6.69012 19.7973 5.25288C20.2125 4.94281 20.6331 4.63275 21.0483 4.31722C22.3102 3.38159 23.6047 2.50602 24.8554 1.67399C25.4017 1.29873 25.9479 0.928925 26.4941 0.548209C26.8797 0.243081 27.3536 0.0707897 27.8451 0.0570369C28.3367 0.0432842 28.8195 0.188807 29.2215 0.471897C29.5518 0.691228 29.8235 0.987974 30.013 1.3363C30.2024 1.68463 30.3038 2.07398 30.3084 2.47046C30.3048 2.76111 30.2507 3.04892 30.1485 3.32105C29.4216 5.45326 28.8699 7.64123 28.4989 9.86319L28.3336 10.6919C28.1668 11.4191 28.0685 12.1604 28.04 12.9059L28.0395 13.1732C28.214 13.1735 28.4322 13.2067 28.7103 13.2182C31.0883 13.3102 33.439 13.4404 35.8442 13.5817C36.176 13.6076 36.5046 13.6649 36.8256 13.7527C36.9238 13.7802 37.0273 13.8077 37.1309 13.8297C37.927 13.9677 38.7231 14.1275 39.5136 14.2872C41.6558 14.8132 43.8518 15.0886 46.0575 15.1077C46.3664 15.0979 46.6755 15.1223 46.9791 15.1805C49.9726 15.732 53.5224 16.2846 57.0235 16.6135C57.4928 16.6718 57.9527 16.79 58.3919 16.9654C58.55 17.0202 58.7135 17.0806 58.8988 17.1355C59.2356 17.237 59.5307 17.4443 59.7404 17.7267C59.9501 18.0091 60.0632 18.3516 60.063 18.7033C60.0617 19.0437 59.9542 19.3753 59.7556 19.6518C58.7043 21.2045 57.4254 22.5902 55.9618 23.7623C55.4817 24.1145 55.0515 24.5302 54.683 24.9979C55.2565 25.7066 55.9188 26.3386 56.6537 26.8782C57.8258 27.8543 58.8328 29.013 59.6359 30.3097L59.7284 30.4354C59.9198 30.7109 60.022 31.0386 60.021 31.3741C60.0198 31.7327 59.9009 32.0809 59.6825 32.3652C59.4641 32.6496 59.1584 32.8544 58.8124 32.9481C58.6214 33.0022 58.4467 33.0564 58.2666 33.1051C57.8631 33.2412 57.4486 33.3426 57.0278 33.4081C55.0818 33.6769 53.1322 33.9366 51.1789 34.1872L48.2982 34.5632C48.0964 34.5628 47.8944 34.6333 47.6925 34.6711C47.1421 34.7911 46.5809 34.8539 46.0176 34.8586C44.1357 34.8886 42.2618 35.1115 40.4253 35.5237C39.9888 35.6101 39.5523 35.691 39.1103 35.7665C38.7883 35.8258 38.4609 35.8961 38.139 35.9718C37.4452 36.1455 36.7393 36.2662 36.0273 36.333C33.4687 36.5242 30.9703 36.6282 28.8593 36.6949L28.7175 36.6946C28.4338 36.694 28.2211 36.6936 28.0628 36.7369L28.0625 36.9278C28.0663 37.7091 28.1506 38.488 28.3141 39.252L28.5517 40.4634C28.9044 42.56 29.4088 44.6283 30.061 46.6519C30.1395 46.8801 30.1796 47.1198 30.1796 47.3612C30.1705 47.95 29.9787 48.5214 29.6308 48.9965C29.2817 49.4435 28.7754 49.7408 28.2149 49.8278C27.6544 49.9148 27.0818 49.785 26.6135 49.4649C26.4446 49.3991 26.3084 49.2952 26.1832 49.1913Z" fill="white"/>
<path fill-rule="evenodd" clip-rule="evenodd" d="M2.84305 24.8387C3.04267 25.93 3.7452 26.4769 4.40955 27.0237L6.27185 28.5875C6.37668 28.6566 6.47032 28.7414 6.54953 28.8389C8.05552 31.2747 10.3594 32.9484 12.4612 34.7691C15.8427 37.6559 19.1422 40.5916 22.7479 43.1898C23.8372 43.9884 24.9701 44.7761 26.2885 45.5752C26.2925 43.5843 25.5759 41.9028 25.3613 40.1187C25.1468 38.3347 24.9212 36.5833 24.6905 34.6574C25.0016 34.5707 25.2746 34.4676 25.5528 34.4191C27.7027 34.0635 29.8525 33.6969 32.0077 33.3794C33.6118 33.1481 35.2212 32.9768 36.8362 32.7837C38.1347 32.6227 39.4386 32.4781 40.7426 32.3225C41.9112 32.1246 43.0895 31.9886 44.2725 31.9151C46.9126 31.8659 49.4612 31.2274 52.0529 30.8399C52.5932 30.7304 53.1399 30.655 53.6897 30.6141C54.3404 30.5542 54.9584 30.3009 55.4639 29.8868C55.3059 29.6794 55.137 29.4806 54.9578 29.2912C54.2283 28.6134 53.4769 27.9573 52.7801 27.2686C52.287 26.716 51.7398 26.2143 51.1467 25.7708C51.0038 25.6965 50.8841 25.5844 50.8007 25.4466C50.7172 25.3089 50.6733 25.1509 50.6736 24.9898C50.6739 24.8288 50.7185 24.6709 50.8025 24.5335C50.8865 24.3961 51.0067 24.2845 51.1499 24.2108C52.7884 23.1232 53.752 21.3633 55.5921 20.4016C55.2245 19.8908 54.678 19.5372 54.0614 19.4112C52.2728 19.1349 50.4787 18.924 48.7067 18.5658C46.613 18.1416 44.4801 18.2355 42.3863 17.8822C38.3185 17.203 34.206 17.102 30.1332 16.2483C28.383 15.8739 26.5998 15.6467 24.8223 15.3485C24.9552 11.6451 25.7205 8.1285 26.5244 4.40466C26.1505 4.56524 25.7859 4.7466 25.4323 4.94791C22.2516 7.04861 19.2263 9.37583 16.3801 11.9115C15.6041 12.6299 14.7029 13.2117 13.9051 13.9083C11.4572 16.047 9.03644 18.213 6.60481 20.3681C6.50387 20.4424 6.41374 20.5303 6.33701 20.6294C5.42197 21.9657 4.37016 23.203 3.19864 24.3212C3.06555 24.4833 2.94659 24.6564 2.84305 24.8387Z" fill="#FFF3D4"/>
<path fill-rule="evenodd" clip-rule="evenodd" d="M58.4265 18.6999C57.9247 18.5033 57.4066 18.3508 56.8783 18.2441C53.4589 17.9372 50.0782 17.3904 46.6976 16.789C46.518 16.754 46.3352 16.7372 46.1522 16.7388C42.9884 16.836 39.9683 15.9681 36.8821 15.4328C36.5232 15.337 36.1591 15.2616 35.7917 15.207C33.4247 15.0713 31.0577 14.9356 28.7015 14.849C27.9782 14.8851 27.26 14.7092 26.6352 14.343C26.2669 13.055 26.5151 11.6919 26.7741 10.3724C27.1859 7.79422 27.802 5.2529 28.6168 2.77245C28.6902 2.59897 28.6989 2.40485 28.6412 2.2255C28.5835 2.04615 28.4632 1.89352 28.3024 1.79545C28.1689 1.71315 28.0118 1.67744 27.8558 1.6939C27.6999 1.71036 27.5538 1.77808 27.4404 1.88644C25.6379 3.12644 23.7973 4.31182 22.0492 5.62284C19.7111 7.39085 17.2968 9.06598 15.2035 11.1508C14.411 11.9347 13.4171 12.5163 12.5919 13.2783C10.2092 15.4826 7.83747 17.7087 5.51471 19.9731C4.4216 21.0618 3.41553 22.2707 2.32782 23.3867C1.99415 23.7176 1.77623 24.1474 1.7065 24.6121C1.63676 25.0768 1.71894 25.5517 1.94079 25.9659C2.12006 26.3644 2.37497 26.7243 2.69138 27.0256C5.87607 30.1084 8.82573 33.4307 12.2072 36.3176C16.9282 40.3253 21.6001 44.3547 26.8461 47.6708C27.0586 47.8021 27.2492 47.9661 27.4562 48.0975C27.5775 48.2 27.7337 48.2518 27.8923 48.242C28.0508 48.2321 28.1995 48.1614 28.3072 48.0446C28.3974 47.9264 28.4625 47.7908 28.4985 47.6465C28.5344 47.5021 28.5404 47.3519 28.5162 47.2051C27.73 44.7151 27.119 42.1731 26.6879 39.5977C26.4054 38.3233 26.3344 37.0111 26.4775 35.7137C27.1661 35.0932 27.9624 35.1057 28.7806 35.0801C31.1481 34.9976 33.521 34.8988 35.8723 34.7181C36.8597 34.6437 37.8312 34.3457 38.8134 34.1786C41.2088 33.7525 43.5826 33.1955 46.0426 33.2441C46.727 33.2019 47.4072 33.1084 48.0777 32.9645C50.9857 32.5831 53.8937 32.2126 56.8073 31.8094C57.3356 31.7025 57.8569 31.5633 58.3681 31.3926C57.6344 30.1926 56.7162 29.1158 55.6473 28.2016C54.4903 27.3724 53.5082 26.3232 52.7572 25.114C53.2347 24.0584 53.9908 23.1529 54.9443 22.4947C56.2889 21.4117 57.4627 20.1324 58.4265 18.6999ZM2.84307 24.8386C2.94178 24.6473 3.05714 24.465 3.1878 24.2939C4.35933 23.1756 5.41113 21.9383 6.32617 20.602C6.40291 20.503 6.49304 20.415 6.59397 20.3408C9.02565 18.1638 11.4463 16.0196 13.8943 13.8809C14.6921 13.1844 15.5933 12.6025 16.3693 11.8841C19.2164 9.35786 22.2416 7.03978 25.4215 4.94782C25.775 4.74652 26.1396 4.56515 26.5135 4.40457C25.7095 8.14478 24.9443 11.6614 24.8004 15.3648C26.578 15.6629 28.3612 15.8901 30.1113 16.2646C34.1569 17.1182 38.2913 17.2193 42.3644 17.8984C44.4583 18.2517 46.5912 18.1579 48.6849 18.5821C50.4569 18.9402 52.2511 19.1347 54.0396 19.4274C54.6442 19.561 55.1779 19.9138 55.5376 20.4177C53.6974 21.4013 52.7121 23.1393 51.0953 24.227C50.9521 24.3007 50.832 24.4123 50.748 24.5497C50.664 24.6871 50.6194 24.845 50.6191 25.006C50.6187 25.167 50.6627 25.3251 50.7461 25.4628C50.8296 25.6005 50.9493 25.7127 51.0922 25.787C51.6853 26.2305 52.2324 26.7322 52.7255 27.2848C53.4496 27.9735 54.201 28.6296 54.9033 29.3074C55.0824 29.4968 55.2513 29.6956 55.4093 29.903C54.9262 30.3074 54.3367 30.5638 53.7115 30.6414C53.1617 30.6823 52.615 30.7577 52.0746 30.8671C49.483 31.2328 46.9344 31.8713 44.2943 31.9423C43.1113 32.0159 41.933 32.1519 40.7643 32.3498C39.4604 32.5053 38.1565 32.65 36.858 32.811C35.2212 33.004 33.6336 33.1754 32.0295 33.4067C29.8743 33.7241 27.7244 34.0907 25.5746 34.4464C25.2963 34.4949 25.0289 34.598 24.7123 34.6846C24.943 36.5997 25.1576 38.3837 25.3831 40.1733C25.6085 41.9628 26.287 43.6115 26.3102 45.6297C24.9918 44.8307 23.8753 44.043 22.7696 43.2444C19.1422 40.5916 15.8427 37.6558 12.4612 34.7581C10.3486 32.9375 8.05556 31.2637 6.54957 28.828C6.47036 28.7305 6.37672 28.6457 6.27189 28.5765L4.40959 27.0127C3.74527 26.4496 3.04272 25.9136 2.84307 24.8386Z" fill="#0E1E2E"/>
</svg>
