<svg width="61" height="50" viewBox="0 0 61 50" fill="none" xmlns="http://www.w3.org/2000/svg">
<path fill-rule="evenodd" clip-rule="evenodd" d="M34.0177 49.1913C34.0786 49.1422 34.1423 49.0965 34.2083 49.0546C39.3999 45.7714 44.0882 41.7801 48.6186 37.92L49.0379 37.5592C51.2868 35.6401 53.3607 33.525 55.3638 31.4755C56.4525 30.3824 57.5412 29.2892 58.6299 28.1961C59.11 27.7465 59.4964 27.2062 59.7667 26.6066C60.0117 26.0527 60.1422 25.455 60.1504 24.8494C60.1444 23.8702 59.7502 22.9333 59.0543 22.2444C58.6006 21.7816 58.1687 21.297 57.715 20.7907C57.1191 20.1319 56.5068 19.4459 55.84 18.7981C53.7304 16.746 51.4679 14.6124 48.7355 12.0761C48.2929 11.6679 47.834 11.3252 47.3915 10.9879C46.9608 10.683 46.5518 10.3485 46.1677 9.98671C44.3627 8.27217 42.4363 6.69012 40.4036 5.25288C39.9884 4.94281 39.5678 4.63275 39.1526 4.31722C37.8907 3.38159 36.5962 2.50602 35.3454 1.67399C34.7992 1.29873 34.253 0.928925 33.7068 0.548209C33.3212 0.243081 32.8473 0.0707897 32.3557 0.0570369C31.8642 0.0432842 31.3814 0.188807 30.9794 0.471897C30.649 0.691228 30.3773 0.987974 30.1879 1.3363C29.9985 1.68463 29.8971 2.07398 29.8925 2.47046C29.8961 2.76111 29.9502 3.04892 30.0524 3.32105C30.7793 5.45326 31.331 7.64123 31.702 9.86319L31.8673 10.6919C32.0341 11.4191 32.1324 12.1604 32.1608 12.9059L32.1614 13.1732C31.9868 13.1735 31.7687 13.2067 31.4905 13.2182C29.1125 13.3102 26.7619 13.4404 24.3567 13.5817C24.0249 13.6076 23.6963 13.6649 23.3752 13.7527C23.2771 13.7802 23.1735 13.8077 23.0699 13.8297C22.2739 13.9677 21.4778 14.1275 20.6872 14.2872C18.5451 14.8132 16.3491 15.0886 14.1434 15.1077C13.8344 15.0979 13.5253 15.1223 13.2217 15.1805C10.2283 15.732 6.6785 16.2846 3.17734 16.6135C2.70803 16.6718 2.24815 16.79 1.80895 16.9654C1.65088 17.0202 1.48737 17.0806 1.30202 17.1355C0.965257 17.237 0.670161 17.4443 0.460477 17.7267C0.250794 18.0091 0.137684 18.3516 0.137915 18.7033C0.139215 19.0437 0.246659 19.3753 0.445283 19.6518C1.49654 21.2045 2.77545 22.5902 4.23905 23.7623C4.71916 24.1145 5.14936 24.5302 5.5179 24.9979C4.94438 25.7066 4.28202 26.3386 3.54715 26.8782C2.37503 27.8543 1.36804 29.013 0.564982 30.3097L0.472509 30.4354C0.28102 30.7109 0.178855 31.0386 0.179858 31.3741C0.181073 31.7327 0.300004 32.0809 0.518365 32.3652C0.736726 32.6496 1.04243 32.8544 1.38849 32.9481C1.57951 33.0022 1.75417 33.0564 1.93426 33.1051C2.33781 33.2412 2.75225 33.3426 3.17306 33.4081C5.11906 33.6769 7.06868 33.9366 9.02192 34.1872L11.9027 34.5632C12.1045 34.5628 12.3065 34.6333 12.5084 34.6711C13.0587 34.7911 13.62 34.8539 14.1833 34.8586C16.0652 34.8886 17.9391 35.1115 19.7756 35.5237C20.2121 35.6101 20.6486 35.691 21.0906 35.7665C21.4125 35.8258 21.7399 35.8961 22.0619 35.9718C22.7556 36.1455 23.4615 36.2662 24.1736 36.333C26.7321 36.5242 29.2305 36.6282 31.3416 36.6949L31.4834 36.6946C31.767 36.694 31.9798 36.6936 32.138 36.7369L32.1384 36.9278C32.1346 37.7091 32.0503 38.488 31.8867 39.252L31.6492 40.4634C31.2965 42.56 30.7921 44.6283 30.1399 46.6519C30.0614 46.8801 30.0213 47.1198 30.0213 47.3612C30.0304 47.95 30.2221 48.5214 30.57 48.9965C30.9192 49.4435 31.4255 49.7408 31.986 49.8278C32.5465 49.9148 33.1191 49.785 33.5874 49.4649C33.7563 49.3991 33.8925 49.2952 34.0177 49.1913Z" fill="white"/>
<path fill-rule="evenodd" clip-rule="evenodd" d="M57.3578 24.8387C57.1582 25.93 56.4556 26.4769 55.7913 27.0237L53.929 28.5875C53.8242 28.6566 53.7305 28.7414 53.6513 28.8389C52.1453 31.2747 49.8414 32.9484 47.7396 34.7691C44.3582 37.6559 41.0587 40.5916 37.453 43.1898C36.3637 43.9884 35.2307 44.7761 33.9123 45.5752C33.9083 43.5843 34.6249 41.9028 34.8395 40.1187C35.0541 38.3347 35.2796 36.5833 35.5103 34.6574C35.1992 34.5707 34.9263 34.4676 34.648 34.4191C32.4982 34.0635 30.3483 33.6969 28.1932 33.3794C26.589 33.1481 24.9796 32.9768 23.3647 32.7837C22.0662 32.6227 20.7622 32.4781 19.4583 32.3225C18.2896 32.1246 17.1114 31.9886 15.9284 31.9151C13.2883 31.8659 10.7397 31.2274 8.14799 30.8399C7.60764 30.7304 7.06096 30.655 6.51117 30.6141C5.86041 30.5542 5.24249 30.3009 4.73697 29.8868C4.89494 29.6794 5.06387 29.4806 5.24304 29.2912C5.97258 28.6134 6.72399 27.9573 7.42078 27.2686C7.91384 26.716 8.46102 26.2143 9.05412 25.7708C9.19701 25.6965 9.31671 25.5844 9.40016 25.4466C9.4836 25.3089 9.52756 25.1509 9.52724 24.9898C9.52691 24.8288 9.48231 24.6709 9.39831 24.5335C9.31432 24.3961 9.19416 24.2845 9.05097 24.2108C7.41241 23.1232 6.44886 21.3633 4.60873 20.4016C4.97637 19.8908 5.52288 19.5372 6.13946 19.4112C7.928 19.1349 9.72212 18.924 11.4941 18.5658C13.5878 18.1416 15.7207 18.2355 17.8146 17.8822C21.8823 17.203 25.9948 17.102 30.0677 16.2483C31.8178 15.8739 33.601 15.6467 35.3786 15.3485C35.2457 11.6451 34.4804 8.1285 33.6765 4.40466C34.0503 4.56524 34.4149 4.7466 34.7685 4.94791C37.9493 7.04861 40.9745 9.37583 43.8208 11.9115C44.5968 12.6299 45.4979 13.2117 46.2957 13.9083C48.7437 16.047 51.1644 18.213 53.596 20.3681C53.697 20.4424 53.7871 20.5303 53.8638 20.6294C54.7789 21.9657 55.8307 23.203 57.0022 24.3212C57.1353 24.4833 57.2543 24.6564 57.3578 24.8387Z" fill="#FFF3D4"/>
<path fill-rule="evenodd" clip-rule="evenodd" d="M1.77432 18.6999C2.27614 18.5033 2.79416 18.3508 3.32249 18.2441C6.74188 17.9372 10.1226 17.3904 13.5032 16.789C13.6829 16.754 13.8656 16.7372 14.0486 16.7388C17.2124 16.836 20.2325 15.9681 23.3187 15.4328C23.6776 15.337 24.0417 15.2616 24.4091 15.207C26.7761 15.0713 29.1431 14.9356 31.4993 14.849C32.2227 14.8851 32.9408 14.7092 33.5656 14.343C33.9339 13.055 33.6857 11.6919 33.4267 10.3724C33.0149 7.79422 32.3988 5.2529 31.584 2.77245C31.5106 2.59897 31.5019 2.40485 31.5596 2.2255C31.6173 2.04615 31.7376 1.89352 31.8984 1.79545C32.032 1.71315 32.189 1.67744 32.345 1.6939C32.5009 1.71036 32.6471 1.77808 32.7604 1.88644C34.5629 3.12644 36.4035 4.31182 38.1516 5.62284C40.4898 7.39085 42.904 9.06598 44.9974 11.1508C45.7898 11.9347 46.7837 12.5163 47.6089 13.2783C49.9916 15.4826 52.3633 17.7087 54.6861 19.9731C55.7792 21.0618 56.7853 22.2707 57.873 23.3867C58.2067 23.7176 58.4246 24.1474 58.4943 24.6121C58.564 25.0768 58.4819 25.5517 58.26 25.9659C58.0807 26.3644 57.8258 26.7243 57.5094 27.0256C54.3247 30.1084 51.3751 33.4307 47.9936 36.3176C43.2726 40.3253 38.6007 44.3547 33.3547 47.6708C33.1422 47.8021 32.9516 47.9661 32.7446 48.0975C32.6233 48.2 32.4671 48.2518 32.3085 48.242C32.15 48.2321 32.0013 48.1614 31.8936 48.0446C31.8034 47.9264 31.7383 47.7908 31.7023 47.6465C31.6664 47.5021 31.6604 47.3519 31.6847 47.2051C32.4708 44.7151 33.0818 42.1731 33.5129 39.5977C33.7954 38.3233 33.8664 37.0111 33.7233 35.7137C33.0348 35.0932 32.2384 35.1057 31.4202 35.0801C29.0527 34.9976 26.6798 34.8988 24.3285 34.7181C23.3411 34.6437 22.3696 34.3457 21.3874 34.1786C18.992 33.7525 16.6182 33.1955 14.1583 33.2441C13.4738 33.2019 12.7936 33.1084 12.1231 32.9645C9.21509 32.5831 6.30706 32.2126 3.39351 31.8094C2.86519 31.7025 2.34393 31.5633 1.83267 31.3926C2.5664 30.1926 3.48461 29.1158 4.5535 28.2016C5.71048 27.3724 6.6926 26.3232 7.44364 25.114C6.96609 24.0584 6.20998 23.1529 5.25653 22.4947C3.91195 21.4117 2.73806 20.1324 1.77432 18.6999ZM57.3577 24.8386C57.259 24.6473 57.1437 24.465 57.013 24.2939C55.8415 23.1756 54.7897 21.9383 53.8746 20.602C53.7979 20.503 53.7078 20.415 53.6068 20.3408C51.1752 18.1638 48.7545 16.0196 46.3065 13.8809C45.5087 13.1844 44.6076 12.6025 43.8316 11.8841C40.9845 9.35786 37.9592 7.03978 34.7794 4.94782C34.4258 4.74652 34.0612 4.56515 33.6873 4.40457C34.4913 8.14478 35.2565 11.6614 35.4004 15.3648C33.6228 15.6629 31.8396 15.8901 30.0895 16.2646C26.0439 17.1182 21.9096 17.2193 17.8364 17.8984C15.7425 18.2517 13.6096 18.1579 11.5159 18.5821C9.74391 18.9402 7.94975 19.1347 6.16125 19.4274C5.55664 19.561 5.02294 19.9138 4.66324 20.4177C6.50342 21.4013 7.48874 23.1393 9.10549 24.227C9.24867 24.3007 9.36884 24.4123 9.45283 24.5497C9.53683 24.6871 9.58143 24.845 9.58176 25.006C9.58208 25.167 9.53812 25.3251 9.45468 25.4628C9.37124 25.6005 9.25152 25.7127 9.10864 25.787C8.51554 26.2305 7.96836 26.7322 7.47529 27.2848C6.75123 27.9735 5.99982 28.6296 5.29755 29.3074C5.11839 29.4968 4.94946 29.6956 4.79148 29.903C5.27457 30.3074 5.86411 30.5638 6.48934 30.6414C7.03914 30.6823 7.58582 30.7577 8.12616 30.8671C10.7178 31.2328 13.2664 31.8713 15.9065 31.9423C17.0895 32.0159 18.2678 32.1519 19.4365 32.3498C20.7404 32.5053 22.0443 32.65 23.3428 32.811C24.9796 33.004 26.5672 33.1754 28.1713 33.4067C30.3265 33.7241 32.4764 34.0907 34.6262 34.4464C34.9045 34.4949 35.1719 34.598 35.4885 34.6846C35.2578 36.5997 35.0432 38.3837 34.8177 40.1733C34.5923 41.9628 33.9138 43.6115 33.8906 45.6297C35.209 44.8307 36.3256 44.043 37.4312 43.2444C41.0586 40.5916 44.3581 37.6558 47.7396 34.7581C49.8523 32.9375 52.1452 31.2637 53.6512 28.828C53.7304 28.7305 53.8241 28.6457 53.9289 28.5765L55.7912 27.0127C56.4555 26.4496 57.1581 25.9136 57.3577 24.8386Z" fill="#0E1E2E"/>
</svg>
